PathFileType	4	(X/Y/Z)	C:/Users/beibeiliu/ov580/test_trc/User2\sequence.22_training_dense_right.trc
DataRate	CameraRate	NumFrames	NumMarkers	Units	OrigDataRate	OrigDataStartFrame	OrigNumFrames
120	120	14	19	mm	120	319	364
Frame#	Time	ThumbCMC			ThumbMCP			ThumbIP			ThumbTip			IndexMCP			IndexPIP			IndexTip			MiddleMCP			MiddlePIP			MiddleTip			RingMCP			RingPIP			RingTip			PinkyMCP			PinkyPIP			PinkyTip			BackHand1			BackHand2			BackHand3	
		X0	Y0	Z0	X1	Y1	Z1	X2	Y2	Z2	X3	Y3	Z3	X4	Y4	Z4	X5	Y5	Z5	X6	Y6	Z6	X7	Y7	Z7	X8	Y8	Z8	X9	Y9	Z9	X10	Y10	Z10	X11	Y11	Z11	X12	Y12	Z12	X13	Y13	Z13	X14	Y14	Z14	X15	Y15	Z15	X16	Y16	Z16	X17	Y17	Z17	X18	Y18	Z18	
318	2.65	19.132	-9.84729	81.9205	-6.22193	-18.2639	63.0595	-24.6235	-21.4437	29.063	-33.6823	-27.5905	9.06111	-2.72195	0.809495	7.59165	-8.83068	-31.4821	2.63932	6.629	-48.3122	31.0615	15.6474	-10.5295	-5.14882	7.38691	-43.0605	1.09726	25.8206	-46.2042	39.9236	34.0806	-16.5905	-10.7045	21.4902	-46.9339	-3.65189	34.9768	-41.362	30.9408	57.2911	-8.99875	-9.91129	43.3734	-11.8406	-30.856	23.6658	-10.4303	-47.5948	69.5212	6.75178	38.1612	85.3351	1.97815	66.2257	49.2696	14.5426	64.8282	
319	2.65833	20.4157	-13.3927	83.8603	-2.97336	-19.725	56.5904	-21.5168	-23.1074	25.5916	-31.8311	-29.7828	4.41671	4.45467	1.42975	5.63124	-4.43545	-28.6912	-2.83575	6.72908	-48.9343	28.6786	20.2964	-8.08661	-4.75145	13.6047	-45.2561	-0.0966911	26.3061	-47.5449	34.6756	35.5763	-18.8371	-13.2875	31.2742	-49.0052	-8.26849	42.5845	-44.5141	28.9033	63.9704	-10.7007	-7.8605	49.5485	-13.2177	-29.8593	34.1067	-11.576	-47.973	72.9967	6.79248	37.5103	90.441	1.92126	69.0432	50.7061	13.9414	66.3207	
320	2.66667	21.4052	-10.9327	74.614	1.70798	-21.2393	51.2933	-12.4338	-26.5568	18.8783	-20.9668	-31.8547	-4.98266	12.9768	-1.76695	-2.02289	2.77289	-33.1192	-7.77399	14.522	-50.9649	20.7256	28.9978	-11.9877	-12.2848	23.0976	-45.6563	-7.15824	33.4805	-45.7511	32.5291	50.7041	-22.2626	-16.9077	43.0732	-51.9974	-9.4959	48.9573	-48.2157	27.7099	71.7899	-10.8315	-7.10222	60.2049	-15.0506	-30.1709	47.372	-14.7391	-54.4796	77.8605	6.6495	38.1448	91.4585	1.93136	70.0938	52.5163	15.0626	66.54	
321	2.675	25.9574	-11.9819	71.9161	7.69219	-22.014	44.864	-5.84044	-28.9317	10.3811	-8.8063	-35.9595	-15.3581	22.6672	-4.13709	-7.51509	18.0012	-38.356	-12.5249	23.4342	-52.6087	16.7033	45.3607	-16.6036	-18.0894	38.7469	-48.9125	-10.173	45.3968	-45.262	30.0761	59.6883	-23.9637	-16.3216	52.8286	-55.5658	-10.2977	53.5869	-52.2163	23.482	82.4059	-14.3453	-12.9332	75.1592	-19.5832	-34.9615	62.7117	-20.945	-57.9166	86.9532	7.52358	36.6376	95.324	5.83802	68.1725	60.3269	14.8622	58.1464	
322	2.68333	30.3378	-9.77441	63.9775	17.0762	-22.3114	37.1553	5.16149	-31.8843	3.36183	4.86298	-40.5456	-17.6616	35.813	-7.09646	-12.1672	26.7932	-41.3923	-16.3349	35.4573	-54.819	13.2852	53.1294	-19.3628	-19.909	45.5562	-52.4832	-10.0583	49.7269	-42.3134	30.7692	72.1574	-31.4876	-19.2834	62.0686	-59.48	-7.8395	62.1106	-52.3755	27.0508	97.8491	-19.2813	-14.4229	87.1973	-25.1769	-33.3971	80.9129	-29.0139	-61.6543	98.6486	3.91876	32.8884	102.716	5.10968	65.4604	67.855	13.9823	57.1256	
323	2.69167	36.031	-10.6183	62.0102	21.8407	-23.4212	32.1451	13.5523	-35.4306	3.88053	11.2026	-45.6379	-23.0056	42.1172	-11.6559	-17.5254	37.4244	-45.269	-18.6239	40.9617	-56.9949	15.9437	65.1301	-21.264	-20.6157	52.5592	-55.2087	-8.01759	55.8301	-44.3265	27.5189	82.2855	-32.5799	-18.2678	66.7987	-60.7749	-8.20943	69.4215	-55.978	25.9898	105.683	-22.5484	-13.3404	95.076	-28.4246	-35.372	91.6395	-31.808	-60.5473	99.8874	4.18982	33.3244	104.281	5.98886	65.266	70.041	16.195	55.611	
324	2.7	38.8628	-9.90438	57.7205	22.5326	-23.2907	29.2561	18.1862	-37.1233	0.00804735	15.0123	-47.863	-24.2412	44.7644	-12.8327	-18.1867	38.5577	-47.7282	-18.0974	44.9444	-58.7891	17.2415	67.5006	-24.5327	-21.1521	56.8561	-56.7761	-6.99243	59.5706	-44.7879	26.7538	85.5857	-36.1857	-18.5472	75.2401	-64.7786	-8.47428	70.4461	-55.0917	27.1032	106.509	-23.8529	-12.924	101.973	-32.9842	-35.6503	97.151	-36.9995	-55.8919	107.285	-0.584113	34.0519	108.522	4.17595	64.9603	72.5397	14.4632	48.9871	
325	2.70833	40.972	-6.77738	61.131	23.8343	-20.9385	30.7547	16.4126	-34.6438	0.0425652	15.0151	-45.9132	-24.7076	44.6897	-13.3102	-19.2458	41.5434	-44.2651	-20.0151	44.8818	-56.7554	14.0168	66.8718	-25.2126	-21.8403	56.5134	-55.8189	-7.94942	61.3875	-43.8749	26.9926	83.6835	-35.9729	-17.4852	71.6949	-62.0482	-9.02499	73.5544	-52.5885	28.7114	110.275	-27.4526	-14.2838	101.614	-34.7196	-36.9407	92.8869	-41.8978	-60.6996	107.508	0.318505	30.9333	111.681	3.05604	62.6963	74.9541	16.8945	48.1714	
326	2.71667	40.7291	-2.12131	61.9613	25.332	-17.0729	31.0512	17.1523	-29.1522	-1.31479	15.1206	-40.8167	-21.8751	48.006	-13.5741	-20.6214	38.5352	-41.8711	-20.0132	38.0004	-53.8351	13.7721	68.093	-23.2156	-21.4966	54.558	-56.6272	-7.85597	57.3189	-43.3804	28.7202	83.191	-36.8471	-17.0897	69.6319	-65.6197	-6.79458	70.2186	-52.1092	28.2281	108.459	-30.6429	-15.9765	97.3312	-39.8166	-39.1801	90.7364	-44.6973	-59.0944	106.803	-1.29546	30.1518	115.594	1.85027	63.026	82.7512	15.8471	49.9296	
327	2.725	46.819	2.2693	57.4171	21.2241	-7.80605	34.7803	12.8417	-21.2459	5.45126	8.81783	-34.1113	-20.7591	43.858	-7.0597	-18.9697	30.7716	-38.4259	-17.7226	30.9836	-48.3812	18.1681	63.079	-26.5725	-22.7904	44.9525	-53.695	-10.7666	52.9194	-42.9659	30.1557	76.5279	-42.7474	-18.3784	57.1058	-61.7519	-5.39392	64.0434	-48.4802	28.8203	103.013	-36.6244	-16.138	91.5744	-45.8987	-38.3981	77.0361	-54.3693	-61.0698	110.874	-6.93761	26.4016	114.483	1.57133	58.6242	85.3073	16.9128	43.8755	
328	2.73333	48.4901	10.5275	58.4047	25.6536	0.702933	34.7978	8.18673	-9.71341	8.4232	-5.23271	-21.4253	-14.1914	39.4651	-2.97206	-17.5146	20.0272	-31.3948	-13.0603	23.5736	-37.9592	21.7787	55.6634	-25.7489	-21.5725	30.9995	-48.7402	-2.68525	41.8975	-42.1363	33.708	61.4763	-42.0989	-17.3985	46.4206	-61.2243	-0.0199858	59.7287	-41.9284	32.589	91.6287	-41.3765	-13.5384	75.9364	-51.4594	-38.1773	65.3456	-57.5368	-55.0575	107.134	-11.4417	25.0077	117.44	-7.82896	54.8689	87.0158	15.7125	41.3904	
329	2.74167	52.8468	19.5652	58.0946	25.2771	12.6498	36.7329	2.75299	5.52313	8.91612	-7.90335	-7.06537	-9.20127	38.0188	2.14147	-16.7113	10.8994	-20.2391	-7.69237	23.033	-25.2133	28.0011	43.2571	-24.0284	-18.9392	18.8496	-41.0983	2.68085	28.696	-31.1837	38.7807	54.7794	-42.0009	-12.6418	32.027	-55.1282	8.1627	46.1877	-37.4924	34.1739	79.6783	-49.3396	-12.6566	64.0962	-59.3987	-32.5084	44.8304	-62.6345	-50.6453	101.503	-15.0102	23.2398	116.261	-12.2176	51.613	90.8634	18.8347	39.7263	
330	2.75	56.4885	26.8518	51.2404	26.86	27.0871	33.6298	6.0039	18.0597	10.3238	-14.0844	10.452	-10.7692	34.3452	8.58364	-16.8459	7.22669	-6.85644	-3.65486	21.0704	-8.3087	28.1804	34.6584	-15.0392	-18.049	7.85032	-26.7032	2.35596	19.9003	-22.4551	40.1485	37.4513	-37.3771	-10.2667	15.5463	-37.4623	14.0188	39.8991	-25.6169	38.0289	64.6015	-51.8138	-7.88439	44.8934	-56.2872	-25.8915	28.6526	-58.5061	-46.0025	94.7171	-20.2272	23.832	110.584	-19.7197	50.2529	92.5605	15.3426	37.7461	
331	2.75833	63.3201	36.0888	51.6164	32.0296	35.3229	27.0171	8.12168	29.4404	3.58111	-11.7397	27.7012	-10.9513	30.0446	16.8425	-18.4733	5.33891	9.55726	1.71787	24.7475	2.06614	27.2813	29.348	-8.80627	-17.0281	0.607219	-12.8679	7.15571	14.1704	-4.65205	41.8087	29.5059	-30.3434	-5.74952	5.61444	-25.6245	14.9851	29.8094	-17.2524	40.0563	46.3198	-48.9192	-5.74132	28.2304	-51.6376	-21.8258	14.9796	-53.7082	-39.4176	86.7293	-30.8669	23.2318	102.371	-26.7966	55.5225	92.6039	6.39487	31.9705	
